<svg xmlns="http://www.w3.org/2000/svg" viewBox="0 0 410.9 100.24"><g id="Laag_2" data-name="Laag 2"><g id="Laag_1-2" data-name="Laag 1"><path d="M20.44,83.72H12c2.8,4.06,6,9.38,6,14.28H0V0H19.88V13.72c0,16.66-4.2,23.24-7.7,28.7h8.4c3.08-7.14,9.1-16.52,23.52-16.52,17.08,0,28.84,15,28.84,37.1S61.18,100.24,44.1,100.24C29.26,100.24,23.94,90.72,20.44,83.72ZM52.08,63c0-16.38-7.14-22.12-16.38-22.12C25.76,40.88,19,48.16,19,63S25.9,85.12,35.7,85.12C44.94,85.12,52.08,79.38,52.08,63Z"/><path d="M83.16,62.86c0-22,15.12-37,35.42-37,23.52,0,35.84,18.48,33.88,41.86H103c.56,12.32,7.14,17.36,15.68,17.36,9,0,13.3-5.6,16.24-12.18l17.78,6.86c-3.92,9-12.74,20.44-34,20.44C97.16,100.24,83.16,85.82,83.16,62.86Zm49.7-9.1C132,45.08,127,40.18,118.58,40.18c-8,0-13.44,4.76-14.84,13.58Z"/><path d="M167.58,0h19.88V98H167.58Z"/><path d="M202.16,62.86c0-22,15.12-37,35.42-37,23.52,0,35.84,18.48,33.88,41.86H222c.56,12.32,7.14,17.36,15.68,17.36,9,0,13.3-5.6,16.24-12.18l17.78,6.86c-3.92,9-12.74,20.44-34,20.44C216.16,100.24,202.16,85.82,202.16,62.86Zm49.7-9.1C251,45.08,246,40.18,237.58,40.18c-8,0-13.44,4.76-14.84,13.58Z"/><path d="M282,62.86c0-22,15.12-37,35.42-37,23.52,0,35.84,18.48,33.88,41.86H301.84c.56,12.32,7.14,17.36,15.68,17.36,9,0,13.3-5.6,16.24-12.18l17.78,6.86c-3.92,9-12.74,20.44-34,20.44C296,100.24,282,85.82,282,62.86Zm49.7-9.1c-.84-8.68-5.88-13.58-14.28-13.58-8,0-13.44,4.76-14.84,13.58Z"/><path d="M371.84,43.12H358.26V28h13.58V18.34C371.84,7.42,378,0,389.34,0H410.9V15.82h-13c-4.34,0-6.16,2-6.16,6.16v6H408V43.12H391.72V98H371.84Z"/></g></g></svg>