<svg width="218" height="43" viewBox="0 0 218 43" fill="none" xmlns="http://www.w3.org/2000/svg">
<circle cx="21.5" cy="21.5" r="21.5" fill="#E9E9E9"/>
<circle cx="79.8571" cy="21.5" r="21.5" fill="#E9E9E9"/>
<circle cx="137.446" cy="21.5" r="21.5" fill="#E9E9E9"/>
<circle cx="195.803" cy="21.5" r="21.5" fill="#E9E9E9"/>
<g clip-path="url(#clip0)">
<path d="M85.5747 23.0358L86.2571 18.5889H81.9903V15.7032C81.9903 14.4867 82.5863 13.3008 84.4973 13.3008H86.4371V9.51478C86.4371 9.51478 84.6768 9.21436 82.9937 9.21436C79.4798 9.21436 77.183 11.3442 77.183 15.1998V18.5889H73.277V23.0358H77.183V33.7858H81.9903V23.0358H85.5747Z" fill="black"/>
</g>
<g clip-path="url(#clip1)">
<path d="M31.2599 16.4955C31.2755 16.7137 31.2755 16.9321 31.2755 17.1503C31.2755 23.8076 26.2085 31.4784 16.9474 31.4784C14.0942 31.4784 11.4438 30.6521 9.21426 29.2178C9.61964 29.2645 10.0094 29.2801 10.4304 29.2801C12.7846 29.2801 14.9517 28.485 16.6823 27.1286C14.4684 27.0818 12.6131 25.6318 11.9738 23.6362C12.2857 23.6829 12.5975 23.7141 12.9249 23.7141C13.3771 23.7141 13.8292 23.6517 14.2502 23.5426C11.9427 23.0749 10.212 21.0481 10.212 18.6003V18.5379C10.8824 18.9121 11.662 19.146 12.4883 19.1771C11.1319 18.2728 10.2432 16.7293 10.2432 14.9831C10.2432 14.0477 10.4927 13.1902 10.9292 12.4418C13.4082 15.4976 17.1345 17.4933 21.3128 17.7116C21.2349 17.3374 21.1881 16.9477 21.1881 16.5579C21.1881 13.7826 23.4332 11.522 26.224 11.522C27.6739 11.522 28.9836 12.13 29.9035 13.1123C31.0416 12.894 32.1329 12.473 33.0996 11.8962C32.7254 13.0655 31.9303 14.0477 30.8857 14.6713C31.8991 14.5623 32.8813 14.2816 33.7856 13.8918C33.0997 14.8896 32.2422 15.7783 31.2599 16.4955Z" fill="black"/>
</g>
<circle cx="131.304" cy="21.5002" r="4.60714" fill="black"/>
<circle cx="142.821" cy="21.5002" r="4.60714" fill="black"/>
<g clip-path="url(#clip2)">
<path d="M207.001 15.9605C206.741 14.9674 205.976 14.1853 205.005 13.9198C203.245 13.4375 196.188 13.4375 196.188 13.4375C196.188 13.4375 189.13 13.4375 187.37 13.9198C186.399 14.1853 185.634 14.9674 185.374 15.9605C184.903 17.7606 184.903 21.5163 184.903 21.5163C184.903 21.5163 184.903 25.272 185.374 27.0721C185.634 28.0652 186.399 28.8147 187.37 29.0802C189.13 29.5625 196.188 29.5625 196.188 29.5625C196.188 29.5625 203.245 29.5625 205.005 29.0802C205.976 28.8147 206.741 28.0652 207.001 27.0721C207.472 25.272 207.472 21.5163 207.472 21.5163C207.472 21.5163 207.472 17.7606 207.001 15.9605ZM193.879 24.9262V18.1064L199.778 21.5164L193.879 24.9262Z" fill="black"/>
</g>
<defs>
<clipPath id="clip0">
<rect width="15.3571" height="24.5714" fill="white" transform="translate(72.1785 9.21436)"/>
</clipPath>
<clipPath id="clip1">
<rect width="24.5714" height="24.5714" fill="white" transform="translate(9.21426 9.21436)"/>
</clipPath>
<clipPath id="clip2">
<rect width="23.8036" height="21.5" fill="white" transform="translate(184.286 10.75)"/>
</clipPath>
</defs>
</svg>
