<svg width="257" height="54" fill="none" xmlns="http://www.w3.org/2000/svg"><path d="M0 33.938c0-12.067 8.305-19.986 19.857-19.986s19.857 7.92 19.857 19.986C39.714 46.232 31.409 54 19.857 54S0 45.553 0 33.938zm28.54.151c0-7.768-3.55-11.69-8.683-11.69-5.134 0-8.683 3.922-8.683 11.69 0 7.768 3.549 11.389 8.683 11.389s8.683-3.62 8.683-11.389zM47.566 15.084h9.664c-.075 2.489-1.66 5.732-3.7 8.673h4.682c1.736-5.355 5.511-9.805 11.551-9.805 8.305 0 12.835 5.506 12.835 13.877v24.964h-10.72V29.866c0-4.978-2.341-7.09-6.04-7.09-7.475 0-7.55 8.146-7.55 12.143v17.874H47.565v-37.71zM96.49 42.913V23.23h-7.927v-8.145h7.928V3.243h10.721v11.84h9.815v8.146h-9.815v17.723c0 2.263.981 3.319 3.322 3.319h8.154v8.522h-12.609c-6.115 0-9.588-3.997-9.588-9.88zM122.689 33.938c0-11.916 6.343-19.986 15.554-19.986 7.776 0 10.872 5.054 12.533 8.9h4.53c-1.888-2.941-4.002-6.486-4.002-15.46V0h10.722v52.793h-9.74c0-2.64 1.736-5.505 3.246-7.692h-4.53C149.115 48.87 146.246 54 138.243 54c-9.211 0-15.554-8.145-15.554-20.062zm29.062 0c0-7.994-3.624-11.916-8.985-11.916-4.983 0-8.833 3.093-8.833 11.916 0 8.825 3.85 11.917 8.833 11.917 5.286 0 8.985-3.922 8.985-11.916zM169.954 33.863c0-11.84 8.154-19.91 19.101-19.91 12.685 0 19.329 9.955 18.272 22.55h-26.652c.302 6.636 3.85 9.352 8.456 9.352 4.832 0 7.173-3.017 8.758-6.562l9.589 3.696c-2.114 4.827-6.871 11.01-18.347 11.01-11.627 0-19.177-7.767-19.177-20.136zm26.796-4.902c-.453-4.676-3.171-7.316-7.701-7.316-4.303 0-7.248 2.564-8.003 7.316h15.704zM231.707 37.182l-5.512 5.279v10.332h-10.721V0h10.721v16.668c0 7.541-2.038 10.332-5.436 13.123l2.869 3.092 17.743-17.8h13.137l-15.402 14.934L257 52.793h-13.515l-11.778-15.611z" fill="#000"/></svg>