<svg width="158" height="37" fill="none" xmlns="http://www.w3.org/2000/svg"><g clip-path="url(#clip0)" fill="#000"><path d="M2.003 36.908l2.123-10.371H0V22.91h4.858l1.808-8.838H0v-3.627h7.398L9.52 0h3.664L11.06 10.445h7.69L20.874 0h3.687l-2.123 10.445h4.223v3.627h-4.955l-1.832 8.838h6.787v3.627h-7.52l-2.125 10.371h-3.66l2.1-10.371H7.787L5.663 36.908h-3.66zM8.52 22.91h7.666l1.832-8.838h-7.692L8.52 22.91zM29.848 18.85C29.848 8.128 37.798.7 47.398.7c8.9 0 13.95 5.185 15.75 10.47l-5.1 2.045c-1.7-4.587-4.85-7.878-10.75-7.878-6.15 0-12.1 4.587-12.1 13.462 0 8.676 4.9 13.663 11.9 13.663 6.75 0 10.5-4.588 10.8-8.776h-12.1v-4.587h17.25V36.3h-4.85c0-2.693 1-5.485 1.95-7.43h-2.35c-.95 2.593-3.95 8.128-12.15 8.128-9.25.002-15.8-6.98-15.8-18.15zM71.297 1.396h25.45v4.587h-20.45v11.07h16.1v4.537h-16.1v14.709h-5V1.396zM100.948 30.816c9.751-5.983 17.801-11.767 17.801-18.748 0-4.537-2.85-6.88-6.35-6.88-3.8 0-6.7 2.742-6.7 7.678l-5.051-.698C100.698 5.536 105.149.7 112.449.7c7.25 0 11.55 4.587 11.55 10.82 0 3.74-1.3 6.93-3.65 9.723-3 3.44-8.35 6.93-15.3 10.82l1.25 1.894c1.8-1.246 3.75-2.243 7.45-2.243h10.65V36.3h-23.451v-5.485zM130 18.75C130 6.783 136.35.7 144.05.7c7.651 0 13.951 6.083 13.951 18.05 0 11.916-5.65 18.249-13.951 18.249C135.7 37 130 30.666 130 18.749zm22.751 0c0-8.377-3.45-13.613-8.701-13.613-5.35 0-8.8 5.236-8.8 13.613 0 8.975 3.35 13.811 8.8 13.811 5.351.003 8.701-4.787 8.701-13.811z"/></g><defs><clipPath id="clip0"><path fill="#fff" d="M0 0h158v37H0z"/></clipPath></defs></svg>